<svg width="146" height="146" viewBox="0 0 146 146" fill="none" xmlns="http://www.w3.org/2000/svg">
<path d="M93.6161 11.7917C95.0253 7.6048 92.7787 3.02177 88.463 2.07982C75.4156 -0.767897 61.7803 0.0220711 49.0695 4.4423C33.8302 9.74182 20.7845 19.9588 11.9849 33.4859C3.18531 47.013 -0.868926 63.0826 0.460045 79.1667C1.78902 95.2507 8.42576 110.436 19.3262 122.335C30.2266 134.233 44.7722 142.169 60.6745 144.894C76.5768 147.619 92.9335 144.978 107.171 137.387C121.409 129.796 132.72 117.685 139.325 102.961C144.834 90.6794 146.808 77.1607 145.108 63.9111C144.546 59.5286 140.175 56.8907 135.881 57.9309L121.129 61.5041C116.835 62.5442 114.28 66.8818 114.479 71.2955C114.771 77.7533 113.555 84.2289 110.879 90.1937C107.105 98.6074 100.642 105.527 92.5068 109.865C84.3712 114.202 75.025 115.711 65.9384 114.154C56.8518 112.597 48.5405 108.063 42.312 101.264C36.0835 94.4653 32.2913 85.7882 31.5319 76.5977C30.7725 67.4073 33.0891 58.2252 38.1172 50.4958C43.1453 42.7664 50.5996 36.9284 59.3073 33.9002C65.4794 31.7539 72.0329 31.1055 78.4375 31.9578C82.8178 32.5406 87.3622 30.3723 88.7719 26.1839L93.6161 11.7917Z" fill="#60A5FA"/>
</svg>
