<svg width="54" height="26" viewBox="0 0 54 26" fill="none" xmlns="http://www.w3.org/2000/svg">
<rect x="0.5" y="0.5" width="53" height="25" rx="5.5" stroke="#E2E8F0"/>
<g clip-path="url(#clip0_8_107)">
<path d="M16 6.33333L18.06 10.5067L22.6666 11.18L19.3333 14.4267L20.12 19.0133L16 16.8467L11.88 19.0133L12.6666 14.4267L9.33331 11.18L13.94 10.5067L16 6.33333Z" stroke="#334155" stroke-width="2" stroke-linecap="round" stroke-linejoin="round"/>
</g>
<path d="M28.48 15.068V14.24L32.692 8.408H34V14.12H35.2V15.068H34V17H32.92V15.068H28.48ZM32.968 9.548L29.74 14.12H32.968V9.548ZM36.8189 17.072C36.6109 17.072 36.4349 17 36.2909 16.856C36.1469 16.712 36.0749 16.536 36.0749 16.328C36.0749 16.12 36.1469 15.944 36.2909 15.8C36.4349 15.656 36.6109 15.584 36.8189 15.584C37.0189 15.584 37.1869 15.656 37.3229 15.8C37.4669 15.944 37.5389 16.12 37.5389 16.328C37.5389 16.536 37.4669 16.712 37.3229 16.856C37.1869 17 37.0189 17.072 36.8189 17.072ZM44.3424 9.272H40.1304V12.008C40.3144 11.752 40.5864 11.544 40.9464 11.384C41.3064 11.216 41.6944 11.132 42.1104 11.132C42.7744 11.132 43.3144 11.272 43.7304 11.552C44.1464 11.824 44.4424 12.18 44.6184 12.62C44.8024 13.052 44.8944 13.512 44.8944 14C44.8944 14.576 44.7864 15.092 44.5704 15.548C44.3544 16.004 44.0224 16.364 43.5744 16.628C43.1344 16.892 42.5864 17.024 41.9304 17.024C41.0904 17.024 40.4104 16.808 39.8904 16.376C39.3704 15.944 39.0544 15.368 38.9424 14.648H40.0104C40.1144 15.104 40.3344 15.46 40.6704 15.716C41.0064 15.972 41.4304 16.1 41.9424 16.1C42.5744 16.1 43.0504 15.912 43.3704 15.536C43.6904 15.152 43.8504 14.648 43.8504 14.024C43.8504 13.4 43.6904 12.92 43.3704 12.584C43.0504 12.24 42.5784 12.068 41.9544 12.068C41.5304 12.068 41.1584 12.172 40.8384 12.38C40.5264 12.58 40.2984 12.856 40.1544 13.208H39.1224V8.312H44.3424V9.272Z" fill="#334155"/>
<defs>
<clipPath id="clip0_8_107">
<rect width="16" height="16" fill="white" transform="translate(8 5)"/>
</clipPath>
</defs>
</svg>
