<svg width="32" height="32" viewBox="0 0 32 32" fill="none" xmlns="http://www.w3.org/2000/svg">
<path d="M16.2933 2.66667H15.7067C14.9994 2.66667 14.3211 2.94762 13.8211 3.44772C13.321 3.94782 13.04 4.62609 13.04 5.33334V5.57334C13.0395 6.04097 12.9161 6.50026 12.6821 6.90512C12.448 7.30998 12.1117 7.64619 11.7067 7.88L11.1333 8.21334C10.728 8.44739 10.2681 8.5706 9.8 8.5706C9.3319 8.5706 8.87205 8.44739 8.46667 8.21334L8.26667 8.10667C7.65476 7.75369 6.92779 7.65793 6.24534 7.84042C5.56289 8.0229 4.98074 8.46872 4.62667 9.08L4.33334 9.58667C3.98035 10.1986 3.88459 10.9256 4.06708 11.608C4.24957 12.2904 4.69538 12.8726 5.30667 13.2267L5.50667 13.36C5.9097 13.5927 6.24483 13.9268 6.47874 14.3291C6.71265 14.7314 6.83719 15.188 6.84 15.6533V16.3333C6.84187 16.8032 6.71954 17.2653 6.48539 17.6727C6.25125 18.0801 5.91361 18.4184 5.50667 18.6533L5.30667 18.7733C4.69538 19.1274 4.24957 19.7096 4.06708 20.392C3.88459 21.0745 3.98035 21.8014 4.33334 22.4133L4.62667 22.92C4.98074 23.5313 5.56289 23.9771 6.24534 24.1596C6.92779 24.3421 7.65476 24.2463 8.26667 23.8933L8.46667 23.7867C8.87205 23.5526 9.3319 23.4294 9.8 23.4294C10.2681 23.4294 10.728 23.5526 11.1333 23.7867L11.7067 24.12C12.1117 24.3538 12.448 24.69 12.6821 25.0949C12.9161 25.4998 13.0395 25.959 13.04 26.4267V26.6667C13.04 27.3739 13.321 28.0522 13.8211 28.5523C14.3211 29.0524 14.9994 29.3333 15.7067 29.3333H16.2933C17.0006 29.3333 17.6789 29.0524 18.179 28.5523C18.6791 28.0522 18.96 27.3739 18.96 26.6667V26.4267C18.9605 25.959 19.0839 25.4998 19.318 25.0949C19.552 24.69 19.8884 24.3538 20.2933 24.12L20.8667 23.7867C21.2721 23.5526 21.7319 23.4294 22.2 23.4294C22.6681 23.4294 23.128 23.5526 23.5333 23.7867L23.7333 23.8933C24.3452 24.2463 25.0722 24.3421 25.7547 24.1596C26.4371 23.9771 27.0193 23.5313 27.3733 22.92L27.6667 22.4C28.0197 21.7881 28.1154 21.0611 27.9329 20.3787C27.7504 19.6962 27.3046 19.1141 26.6933 18.76L26.4933 18.6533C26.0864 18.4184 25.7488 18.0801 25.5146 17.6727C25.2805 17.2653 25.1581 16.8032 25.16 16.3333V15.6667C25.1581 15.1968 25.2805 14.7347 25.5146 14.3273C25.7488 13.9199 26.0864 13.5816 26.4933 13.3467L26.6933 13.2267C27.3046 12.8726 27.7504 12.2904 27.9329 11.608C28.1154 10.9256 28.0197 10.1986 27.6667 9.58667L27.3733 9.08C27.0193 8.46872 26.4371 8.0229 25.7547 7.84042C25.0722 7.65793 24.3452 7.75369 23.7333 8.10667L23.5333 8.21334C23.128 8.44739 22.6681 8.5706 22.2 8.5706C21.7319 8.5706 21.2721 8.44739 20.8667 8.21334L20.2933 7.88C19.8884 7.64619 19.552 7.30998 19.318 6.90512C19.0839 6.50026 18.9605 6.04097 18.96 5.57334V5.33334C18.96 4.62609 18.6791 3.94782 18.179 3.44772C17.6789 2.94762 17.0006 2.66667 16.2933 2.66667Z" stroke="#334155" stroke-width="2" stroke-linecap="round" stroke-linejoin="round"/>
<path d="M16 20C18.2091 20 20 18.2091 20 16C20 13.7909 18.2091 12 16 12C13.7909 12 12 13.7909 12 16C12 18.2091 13.7909 20 16 20Z" stroke="#334155" stroke-width="2" stroke-linecap="round" stroke-linejoin="round"/>
</svg>
