<svg width="196" height="197" viewBox="0 0 196 197" fill="none" xmlns="http://www.w3.org/2000/svg">
<path d="M157.627 83.7116C161.923 82.6801 164.613 78.3379 163.094 74.1884C160.011 65.7666 155.315 57.9983 149.243 51.3311C143.171 44.664 135.875 39.2651 127.778 35.4125C123.789 33.5142 119.217 35.7899 117.791 39.9725L110.681 60.8312C109.255 65.0137 111.575 69.4838 115.26 71.9212C117.409 73.3427 119.382 75.0298 121.131 76.95C122.88 78.8702 124.376 80.9928 125.591 83.2652C127.675 87.1616 131.909 89.8873 136.204 88.8558L157.627 83.7116Z" fill="#DBEAFE"/>
<path d="M114.616 41.7917C116.025 37.6048 113.779 33.0218 109.463 32.0798C96.4156 29.2321 82.7803 30.0221 70.0695 34.4423C54.8302 39.7418 41.7845 49.9588 32.9849 63.4859C24.1853 77.013 20.1311 93.0826 21.46 109.167C22.789 125.251 29.4258 140.436 40.3262 152.335C51.2266 164.233 65.7722 172.169 81.6745 174.894C97.5768 177.619 113.934 174.978 128.171 167.387C142.409 159.796 153.72 147.685 160.325 132.961C165.834 120.679 167.808 107.161 166.108 93.9111C165.546 89.5286 161.175 86.8907 156.881 87.9309L142.129 91.5041C137.835 92.5442 135.28 96.8818 135.479 101.296C135.771 107.753 134.555 114.229 131.879 120.194C128.105 128.607 121.642 135.527 113.507 139.865C105.371 144.202 96.025 145.711 86.9384 144.154C77.8518 142.597 69.5405 138.063 63.312 131.264C57.0835 124.465 53.2913 115.788 52.5319 106.598C51.7725 97.4073 54.0891 88.2252 59.1172 80.4958C64.1453 72.7664 71.5996 66.9284 80.3073 63.9002C86.4794 61.7539 93.0329 61.1055 99.4375 61.9578C103.818 62.5406 108.362 60.3723 109.772 56.1839L114.616 41.7917Z" fill="#60A5FA"/>
<ellipse cx="154.634" cy="51.4341" rx="19.0786" ry="20.5525" fill="#F4F4F4"/>
<path d="M146.059 47.4441V57.6259H144.826V48.7367H144.766L142.281 50.3873V49.1344L144.826 47.4441H146.059ZM152.308 57.7651C151.559 57.7651 150.921 57.5613 150.394 57.1536C149.867 56.7426 149.465 56.1477 149.186 55.3688C148.908 54.5866 148.769 53.642 148.769 52.535C148.769 51.4346 148.908 50.495 149.186 49.7161C149.468 48.9339 149.872 48.3373 150.399 47.9263C150.93 47.512 151.566 47.3049 152.308 47.3049C153.051 47.3049 153.685 47.512 154.212 47.9263C154.743 48.3373 155.147 48.9339 155.426 49.7161C155.707 50.495 155.848 51.4346 155.848 52.535C155.848 53.642 155.709 54.5866 155.43 55.3688C155.152 56.1477 154.749 56.7426 154.222 57.1536C153.695 57.5613 153.057 57.7651 152.308 57.7651ZM152.308 56.6713C153.051 56.6713 153.627 56.3134 154.038 55.5975C154.449 54.8816 154.655 53.8607 154.655 52.535C154.655 51.6534 154.56 50.9026 154.372 50.2829C154.186 49.6631 153.917 49.1908 153.566 48.8659C153.218 48.5411 152.799 48.3787 152.308 48.3787C151.573 48.3787 150.997 48.7417 150.583 49.4675C150.169 50.19 149.962 51.2125 149.962 52.535C149.962 53.4166 150.055 54.1657 150.24 54.7821C150.426 55.3986 150.693 55.8676 151.041 56.1891C151.392 56.5106 151.814 56.6713 152.308 56.6713ZM162.928 55.7168V55.1799C162.928 54.8087 163.004 54.4689 163.156 54.1607C163.312 53.8491 163.537 53.6006 163.832 53.415C164.131 53.226 164.492 53.1316 164.916 53.1316C165.347 53.1316 165.708 53.226 166 53.415C166.292 53.6006 166.512 53.8491 166.661 54.1607C166.81 54.4689 166.885 54.8087 166.885 55.1799V55.7168C166.885 56.088 166.809 56.4294 166.656 56.7409C166.507 57.0492 166.285 57.2978 165.99 57.4867C165.698 57.6723 165.341 57.7651 164.916 57.7651C164.485 57.7651 164.122 57.6723 163.827 57.4867C163.533 57.2978 163.309 57.0492 163.156 56.7409C163.004 56.4294 162.928 56.088 162.928 55.7168ZM163.942 55.1799V55.7168C163.942 56.025 164.015 56.3018 164.161 56.5471C164.306 56.789 164.558 56.91 164.916 56.91C165.264 56.91 165.51 56.789 165.652 56.5471C165.798 56.3018 165.871 56.025 165.871 55.7168V55.1799C165.871 54.8716 165.801 54.5965 165.662 54.3546C165.523 54.1093 165.274 53.9867 164.916 53.9867C164.568 53.9867 164.318 54.1093 164.166 54.3546C164.016 54.5965 163.942 54.8716 163.942 55.1799ZM157.857 49.8901V49.3532C157.857 48.982 157.933 48.6422 158.085 48.334C158.241 48.0224 158.466 47.7739 158.761 47.5883C159.06 47.3993 159.421 47.3049 159.845 47.3049C160.276 47.3049 160.637 47.3993 160.929 47.5883C161.221 47.7739 161.441 48.0224 161.59 48.334C161.739 48.6422 161.814 48.982 161.814 49.3532V49.8901C161.814 50.2613 161.738 50.6027 161.585 50.9142C161.436 51.2225 161.214 51.4711 160.919 51.66C160.627 51.8456 160.269 51.9384 159.845 51.9384C159.414 51.9384 159.051 51.8456 158.756 51.66C158.461 51.4711 158.238 51.2225 158.085 50.9142C157.933 50.6027 157.857 50.2613 157.857 49.8901ZM158.871 49.3532V49.8901C158.871 50.1983 158.944 50.4751 159.09 50.7204C159.235 50.9623 159.487 51.0833 159.845 51.0833C160.193 51.0833 160.439 50.9623 160.581 50.7204C160.727 50.4751 160.8 50.1983 160.8 49.8901V49.3532C160.8 49.0449 160.73 48.7698 160.591 48.5279C160.452 48.2826 160.203 48.16 159.845 48.16C159.497 48.16 159.247 48.2826 159.095 48.5279C158.945 48.7698 158.871 49.0449 158.871 49.3532ZM158.234 57.6259L165.234 47.4441H166.368L159.368 57.6259H158.234Z" fill="#334155"/>
<ellipse cx="36.2485" cy="154.196" rx="19.0786" ry="20.5525" fill="#F8FAFC"/>
<path d="M27.6738 150.206V160.388H26.4408V151.499H26.3811L23.8954 153.15V151.897L26.4408 150.206H27.6738ZM33.923 160.527C33.174 160.527 32.536 160.324 32.009 159.916C31.482 159.505 31.0793 158.91 30.8009 158.131C30.5225 157.349 30.3833 156.404 30.3833 155.297C30.3833 154.197 30.5225 153.257 30.8009 152.478C31.0826 151.696 31.487 151.1 32.014 150.689C32.5443 150.274 33.1806 150.067 33.923 150.067C34.6655 150.067 35.3002 150.274 35.8272 150.689C36.3575 151.1 36.7618 151.696 37.0402 152.478C37.322 153.257 37.4628 154.197 37.4628 155.297C37.4628 156.404 37.3236 157.349 37.0452 158.131C36.7668 158.91 36.3641 159.505 35.8371 159.916C35.3101 160.324 34.6721 160.527 33.923 160.527ZM33.923 159.434C34.6655 159.434 35.2422 159.076 35.6532 158.36C36.0641 157.644 36.2696 156.623 36.2696 155.297C36.2696 154.416 36.1752 153.665 35.9863 153.045C35.8007 152.425 35.5322 151.953 35.1809 151.628C34.8329 151.303 34.4136 151.141 33.923 151.141C33.1873 151.141 32.6122 151.504 32.1979 152.23C31.7836 152.952 31.5765 153.975 31.5765 155.297C31.5765 156.179 31.6693 156.928 31.8549 157.544C32.0405 158.161 32.3073 158.63 32.6553 158.951C33.0066 159.273 33.4292 159.434 33.923 159.434ZM44.5424 158.479V157.942C44.5424 157.571 44.6186 157.231 44.7711 156.923C44.9268 156.611 45.1522 156.363 45.4472 156.177C45.7455 155.988 46.1068 155.894 46.531 155.894C46.9619 155.894 47.3231 155.988 47.6148 156.177C47.9065 156.363 48.1269 156.611 48.276 156.923C48.4252 157.231 48.4998 157.571 48.4998 157.942V158.479C48.4998 158.85 48.4235 159.192 48.2711 159.503C48.1219 159.811 47.8998 160.06 47.6049 160.249C47.3132 160.435 46.9552 160.527 46.531 160.527C46.1001 160.527 45.7372 160.435 45.4422 160.249C45.1472 160.06 44.9235 159.811 44.7711 159.503C44.6186 159.192 44.5424 158.85 44.5424 158.479ZM45.5566 157.942V158.479C45.5566 158.787 45.6295 159.064 45.7753 159.309C45.9212 159.551 46.1731 159.672 46.531 159.672C46.879 159.672 47.1243 159.551 47.2668 159.309C47.4126 159.064 47.4855 158.787 47.4855 158.479V157.942C47.4855 157.634 47.4159 157.359 47.2767 157.117C47.1375 156.872 46.889 156.749 46.531 156.749C46.183 156.749 45.9328 156.872 45.7803 157.117C45.6311 157.359 45.5566 157.634 45.5566 157.942ZM39.4713 152.652V152.115C39.4713 151.744 39.5476 151.404 39.7 151.096C39.8558 150.785 40.0812 150.536 40.3762 150.351C40.6745 150.162 41.0357 150.067 41.46 150.067C41.8909 150.067 42.2521 150.162 42.5438 150.351C42.8355 150.536 43.0559 150.785 43.205 151.096C43.3542 151.404 43.4287 151.744 43.4287 152.115V152.652C43.4287 153.024 43.3525 153.365 43.2 153.677C43.0509 153.985 42.8288 154.233 42.5338 154.422C42.2422 154.608 41.8842 154.701 41.46 154.701C41.0291 154.701 40.6662 154.608 40.3712 154.422C40.0762 154.233 39.8525 153.985 39.7 153.677C39.5476 153.365 39.4713 153.024 39.4713 152.652ZM40.4855 152.115V152.652C40.4855 152.961 40.5585 153.237 40.7043 153.483C40.8501 153.725 41.102 153.846 41.46 153.846C41.808 153.846 42.0533 153.725 42.1958 153.483C42.3416 153.237 42.4145 152.961 42.4145 152.652V152.115C42.4145 151.807 42.3449 151.532 42.2057 151.29C42.0665 151.045 41.8179 150.922 41.46 150.922C41.112 150.922 40.8617 151.045 40.7093 151.29C40.5601 151.532 40.4855 151.807 40.4855 152.115ZM39.8492 160.388L46.8492 150.206H47.9827L40.9827 160.388H39.8492Z" fill="#334155"/>
</svg>
